<?xml version="1.0" standalone="no"?>
<!DOCTYPE svg PUBLIC "-//W3C//DTD SVG 20010904//EN"
 "http://www.w3.org/TR/2001/REC-SVG-20010904/DTD/svg10.dtd">
<svg version="1.0" xmlns="http://www.w3.org/2000/svg"
 width="200.000000pt" height="200.000000pt" viewBox="0 0 200.000000 200.000000"
 preserveAspectRatio="xMidYMid meet">

<g transform="translate(0.000000,200.000000) scale(0.100000,-0.100000)"
fill="#000000" stroke="none">
<path d="M292 1312 l3 -378 27 -42 c53 -79 33 -77 571 -80 l477 -3 0 85 0 86
26 -10 c14 -6 47 -10 73 -10 50 0 63 -9 76 -48 5 -18 1 -29 -15 -44 -31 -29
-43 -66 -31 -100 6 -16 36 -61 69 -101 32 -39 73 -93 91 -119 49 -69 115 -87
179 -48 40 24 66 81 59 126 -5 29 -112 184 -127 184 -4 0 -38 -22 -76 -50 -38
-27 -82 -59 -99 -71 l-30 -21 25 22 c14 12 36 31 50 42 l25 20 -31 26 c-17 15
-40 46 -52 69 l-22 43 40 -38 c22 -20 40 -44 40 -53 0 -9 7 -22 15 -29 13 -11
24 -7 64 21 l49 33 -29 43 c-16 23 -38 47 -49 53 -27 14 -72 12 -96 -5 -20
-13 -23 -12 -45 23 -23 35 -27 37 -86 40 -41 2 -66 8 -75 19 -10 12 -14 81
-18 282 -5 262 -5 268 -31 316 -17 34 -38 57 -65 72 -39 23 -41 23 -512 23
l-473 0 3 -378z m843 277 c51 -14 110 -73 124 -124 7 -24 11 -140 11 -297 l0
-258 -82 0 c-64 0 -79 3 -70 12 33 33 -5 98 -56 98 -41 0 -65 -31 -60 -75 l4
-35 -128 0 c-124 0 -128 1 -118 19 15 29 12 49 -10 71 -46 46 -116 11 -108
-55 l4 -35 -57 0 c-71 0 -105 12 -147 53 -55 53 -62 98 -62 377 0 136 3 250 7
253 11 12 704 8 748 -4z"/>
<path d="M422 1493 c2 -11 14 -19 30 -21 15 -2 29 -11 32 -20 113 -389 104
-365 149 -392 29 -18 52 -20 260 -20 l227 0 0 35 0 35 -223 0 c-211 0 -225 1
-242 20 -10 11 -16 23 -13 26 3 3 112 26 242 51 l236 46 0 88 0 89 -280 0
-279 0 -12 40 -12 40 -59 0 c-51 0 -59 -2 -56 -17z"/>
<path d="M102 593 c6 -144 46 -224 133 -264 38 -17 81 -19 729 -19 l689 0 -5
94 c-8 151 -58 232 -167 271 -37 13 -140 15 -713 15 l-670 0 4 -97z m657 -93
c3 -25 3 -25 -18 -6 -15 14 -25 16 -32 9 -7 -7 -1 -21 20 -46 36 -40 40 -72
11 -87 -39 -21 -86 14 -54 40 11 10 14 9 14 -9 0 -12 6 -21 14 -21 28 0 26 19
-4 53 -16 19 -30 43 -30 54 0 48 72 60 79 13z m51 -54 c0 -14 5 -28 10 -31 9
-6 14 10 13 43 -1 29 27 9 33 -24 7 -39 24 -29 24 14 0 12 6 22 14 22 11 0 11
-10 -3 -55 -18 -63 -33 -70 -48 -22 l-11 32 -7 -32 c-10 -46 -30 -41 -44 10
-7 23 -15 48 -17 55 -4 7 2 12 15 12 16 0 21 -6 21 -24z m194 12 c3 -7 6 -32
9 -55 l5 -41 -42 1 c-34 2 -42 6 -44 24 -2 16 4 26 22 35 14 6 26 17 26 25 0
18 -17 16 -28 -3 -6 -11 -11 -13 -16 -5 -4 6 -4 16 -1 21 9 14 65 12 69 -2z
m118 -23 c1 -19 2 -42 2 -52 1 -9 -5 -18 -11 -20 -9 -3 -13 9 -13 41 0 34 -4
46 -15 46 -11 0 -15 -12 -15 -45 0 -32 -4 -45 -14 -45 -10 0 -15 16 -18 55
l-3 55 43 0 c41 0 42 -1 44 -35z"/>
<path d="M960 400 c-9 -16 -8 -20 5 -20 8 0 15 9 15 20 0 11 -2 20 -5 20 -2 0
-9 -9 -15 -20z"/>
</g>
</svg>
