<?xml version="1.0" standalone="no"?>
<!DOCTYPE svg PUBLIC "-//W3C//DTD SVG 20010904//EN"
 "http://www.w3.org/TR/2001/REC-SVG-20010904/DTD/svg10.dtd">
<svg version="1.0" xmlns="http://www.w3.org/2000/svg"
 width="200.000000pt" height="200.000000pt" viewBox="0 0 200.000000 200.000000"
 preserveAspectRatio="xMidYMid meet">

<g transform="translate(0.000000,200.000000) scale(0.100000,-0.100000)"
fill="#000000" stroke="none">
<path d="M200 1000 l0 -900 800 0 800 0 0 900 0 900 -800 0 -800 0 0 -900z
m531 750 c23 -13 26 -40 4 -40 -8 0 -15 5 -15 10 0 6 -35 10 -86 10 l-85 0 3
-37 3 -38 95 -5 95 -5 3 -50 c3 -38 -1 -52 -14 -62 -22 -16 -167 -18 -195 -3
-23 13 -26 40 -4 40 8 0 15 -4 15 -10 0 -6 35 -10 86 -10 l85 0 -3 38 -3 37
-95 5 -95 5 -3 48 c-5 70 5 77 105 77 46 0 93 -5 104 -10z m94 -82 c9 -24 21
-54 27 -68 9 -24 11 -21 37 40 38 90 60 92 97 11 14 -34 30 -61 34 -61 4 0 15
25 26 56 17 51 36 75 50 62 7 -8 -63 -182 -75 -186 -6 -2 -27 31 -47 74 l-36
78 -32 -74 c-18 -41 -38 -75 -45 -75 -8 0 -28 37 -47 85 -38 98 -39 100 -20
100 8 0 22 -19 31 -42z m485 22 c6 -11 10 -53 8 -93 l-3 -72 -79 -3 c-94 -3
-116 9 -116 70 l0 38 85 0 c84 0 85 0 85 25 0 23 -2 24 -82 27 -54 2 -83 7
-86 16 -3 9 19 12 87 12 80 0 91 -2 101 -20z m218 -77 c2 -57 -1 -93 -7 -93
-6 0 -11 35 -13 78 l-3 77 -67 3 -68 3 0 -81 c0 -61 -3 -81 -12 -78 -9 3 -14
34 -16 97 l-3 92 93 -3 93 -3 3 -92z m-253 -188 c22 -11 50 -36 63 -55 20 -30
23 -45 20 -97 -3 -52 -9 -68 -33 -93 -16 -16 -37 -32 -47 -36 -16 -5 -18 -17
-18 -100 l0 -94 26 0 c29 0 63 -16 82 -39 7 -10 11 -38 10 -72 l-3 -56 121
-144 c67 -79 128 -158 138 -176 22 -44 21 -125 -4 -173 -22 -44 -68 -82 -119
-99 -47 -15 -890 -15 -946 0 -52 15 -119 82 -134 134 -16 58 -14 86 12 136 30
60 290 366 295 348 2 -8 16 -40 29 -71 l26 -58 -102 -120 c-113 -132 -134
-165 -125 -195 14 -47 33 -55 122 -55 l85 0 -19 21 c-38 42 -12 164 57 261
l22 31 18 -22 c18 -22 18 -24 -7 -63 -51 -80 -68 -159 -38 -176 24 -13 89 4
151 39 43 25 56 28 73 19 31 -17 21 -30 -54 -71 l-68 -37 199 -3 c276 -6 371
1 389 25 31 43 18 70 -87 196 -84 101 -103 119 -115 109 -12 -10 -17 -8 -29 7
-7 10 -12 28 -9 40 4 15 -10 39 -51 88 -54 64 -58 66 -79 53 -19 -13 -24 -13
-44 3 l-22 18 30 22 30 21 0 158 c0 175 4 188 60 200 30 6 35 11 35 36 l0 30
-177 3 -178 2 0 -34 c0 -32 3 -35 32 -38 19 -2 38 -13 50 -29 18 -23 19 -37
12 -163 -7 -134 -8 -137 -28 -131 -12 4 -42 11 -68 17 l-48 11 0 91 c0 91 0
92 -30 109 -41 25 -60 66 -60 132 0 68 20 109 63 132 53 27 94 32 277 30 151
-2 180 -5 215 -22z m-367 -551 l34 -14 -31 -37 c-17 -21 -42 -51 -55 -68 l-25
-29 -20 44 c-50 111 -14 149 97 104z m128 -78 c18 -14 15 -18 -56 -90 -74 -76
-74 -76 -94 -56 -20 20 -20 20 49 90 38 39 72 70 75 70 4 0 15 -6 26 -14z m74
-171 c0 -12 -7 -28 -15 -35 -13 -11 -15 -6 -15 35 0 41 2 46 15 35 8 -7 15
-23 15 -35z m122 -31 c11 -24 8 -29 -54 -90 -36 -35 -70 -64 -74 -64 -5 0 -17
7 -27 14 -17 13 -12 20 55 88 40 41 76 75 81 76 4 1 13 -10 19 -24z"/>
<path d="M1152 1578 c3 -21 8 -23 68 -23 60 0 65 2 68 23 3 21 0 22 -68 22
-68 0 -71 -1 -68 -22z"/>
<path d="M1305 870 c10 -11 20 -18 23 -15 7 6 -18 35 -31 35 -5 0 -2 -9 8 -20z"/>
</g>
</svg>
